<svg width="16" height="16" viewBox="0 0 16 16" fill="none" xmlns="http://www.w3.org/2000/svg">
<path d="M12.8187 12.488L13.9974 11.3093L15.1754 12.488C15.4086 12.7211 15.5673 13.018 15.6317 13.3414C15.696 13.6647 15.6631 13.9998 15.5369 14.3044C15.4108 14.609 15.1972 14.8693 14.9231 15.0524C14.649 15.2356 14.3267 15.3334 13.9971 15.3334C13.6674 15.3334 13.3452 15.2356 13.0711 15.0524C12.797 14.8693 12.5834 14.609 12.4572 14.3044C12.3311 13.9998 12.2981 13.6647 12.3625 13.3414C12.4268 13.018 12.5856 12.7211 12.8187 12.488ZM5.91875 0.720001L13.4614 8.262C13.5234 8.32392 13.5726 8.39744 13.6061 8.47837C13.6397 8.55931 13.6569 8.64606 13.6569 8.73367C13.6569 8.82128 13.6397 8.90803 13.6061 8.98896C13.5726 9.06989 13.5234 9.14342 13.4614 9.20533L7.80475 14.862C7.67973 14.987 7.51019 15.0572 7.33341 15.0572C7.15664 15.0572 6.9871 14.987 6.86208 14.862L1.20541 9.20533C1.14343 9.14342 1.09426 9.06989 1.06071 8.98896C1.02716 8.90803 1.00989 8.82128 1.00989 8.73367C1.00989 8.64606 1.02716 8.55931 1.06071 8.47837C1.09426 8.39744 1.14343 8.32392 1.20541 8.262L6.39075 3.07667L4.97608 1.66267L5.92008 0.720001H5.91875ZM7.33341 4.02L2.61941 8.73333H12.0467L7.33341 4.02Z" fill="currentColor"/>
</svg>
