<svg width="16" height="16" viewBox="0 0 16 16" fill="none" xmlns="http://www.w3.org/2000/svg">
<path d="M13.3333 2C13.7013 2 14 2.29867 14 2.66667V3.838L12.6667 5.17133V3.33333H3.33333V8.73333L6 6.06667L8.88533 8.95267L7.942 9.89467L6 7.95333L3.33333 10.6193V12.6667H10.3553L10.8273 12.6673L11.7133 11.7807L12.6 12.6667H12.6667V10.828L14 9.49467V13.3333C14 13.7013 13.7013 14 13.3333 14H2.66667C2.3 14 2 13.7 2 13.3333V2.66667C2 2.29867 2.29867 2 2.66667 2H13.3333ZM14.5187 5.20533L15.4613 6.148L10.276 11.3333L9.332 11.332L9.33333 10.3907L14.5187 5.20533ZM10.3333 4.66667C10.8853 4.66667 11.3333 5.11467 11.3333 5.66667C11.3333 6.21867 10.8853 6.66667 10.3333 6.66667C9.78133 6.66667 9.33333 6.21867 9.33333 5.66667C9.33333 5.11467 9.78133 4.66667 10.3333 4.66667Z" fill="currentColor"/>
</svg>
