<svg width="22" height="20" viewBox="0 0 22 20" fill="none" xmlns="http://www.w3.org/2000/svg">
<path d="M8.08602 7.358L3.13602 12.308L8.33002 17.502H9.50002V17.5H10.672L14.45 13.722L8.08602 7.358ZM9.50002 5.944L15.864 12.308L18.692 9.479L12.328 3.115L9.50002 5.944ZM13.5 17.5H20.5V19.5H11.5L7.50202 19.502L1.01502 13.015C0.827544 12.8275 0.722229 12.5732 0.722229 12.308C0.722229 12.0428 0.827544 11.7885 1.01502 11.601L11.62 0.994001C11.7129 0.901024 11.8232 0.827265 11.9446 0.776941C12.066 0.726617 12.1961 0.700714 12.3275 0.700714C12.4589 0.700714 12.5891 0.726617 12.7105 0.776941C12.8319 0.827265 12.9421 0.901024 13.035 0.994001L20.813 8.772C21.0005 8.95953 21.1058 9.21384 21.1058 9.479C21.1058 9.74417 21.0005 9.99847 20.813 10.186L13.5 17.5Z" fill="currentColor"/>
</svg>
