<svg width="24" height="24" viewBox="0 0 24 24" fill="none" xmlns="http://www.w3.org/2000/svg">
<path d="M12.001 4.529C14.35 2.42 17.98 2.49 20.243 4.757C22.505 7.025 22.583 10.637 20.479 12.993L11.999 21.485L3.52101 12.993C1.41701 10.637 1.49601 7.019 3.75701 4.757C6.02201 2.493 9.64501 2.417 12.001 4.529ZM18.827 6.17C17.327 4.668 14.907 4.607 13.337 6.017L12.002 7.215L10.666 6.018C9.09101 4.606 6.67601 4.668 5.17201 6.172C3.68201 7.662 3.60701 10.047 4.98001 11.623L12 18.654L19.02 11.624C20.394 10.047 20.319 7.665 18.827 6.17Z" fill="currentColor"/>
</svg>
