<svg width="16" height="16" viewBox="0 0 16 16" fill="none" xmlns="http://www.w3.org/2000/svg">
<path d="M8 14.6666C4.318 14.6666 1.33333 11.682 1.33333 7.99998C1.33333 4.31798 4.318 1.33331 8 1.33331C11.682 1.33331 14.6667 4.31798 14.6667 7.99998C14.6667 11.682 11.682 14.6666 8 14.6666ZM8 13.3333C9.41448 13.3333 10.771 12.7714 11.7712 11.7712C12.7714 10.771 13.3333 9.41447 13.3333 7.99998C13.3333 6.58549 12.7714 5.22894 11.7712 4.22874C10.771 3.22855 9.41448 2.66665 8 2.66665C6.58551 2.66665 5.22895 3.22855 4.22876 4.22874C3.22856 5.22894 2.66666 6.58549 2.66666 7.99998C2.66666 9.41447 3.22856 10.771 4.22876 11.7712C5.22895 12.7714 6.58551 13.3333 8 13.3333ZM7.33333 4.66665H8.66666V5.99998H7.33333V4.66665ZM7.33333 7.33331H8.66666V11.3333H7.33333V7.33331Z" fill="currentColor"/>
</svg>
