<svg width="16" height="16" viewBox="0 0 16 16" fill="none" xmlns="http://www.w3.org/2000/svg">
<path d="M2.66667 12H4V13.3333H12V2.66665H4V3.99998H2.66667V1.99998C2.66667 1.82317 2.73691 1.6536 2.86193 1.52858C2.98696 1.40355 3.15653 1.33331 3.33334 1.33331H12.6667C12.8435 1.33331 13.0131 1.40355 13.1381 1.52858C13.2631 1.6536 13.3333 1.82317 13.3333 1.99998V14C13.3333 14.1768 13.2631 14.3464 13.1381 14.4714C13.0131 14.5964 12.8435 14.6666 12.6667 14.6666H3.33334C3.15653 14.6666 2.98696 14.5964 2.86193 14.4714C2.73691 14.3464 2.66667 14.1768 2.66667 14V12ZM4 7.33331H8.66667V8.66665H4V10.6666L0.666672 7.99998L4 5.33331V7.33331Z" fill="currentColor"/>
</svg>
