<svg width="16" height="16" viewBox="0 0 16 16" fill="none" xmlns="http://www.w3.org/2000/svg">
<path d="M9.33396 1.33337C10.5539 1.33279 11.7372 1.75049 12.6865 2.51679C13.6358 3.2831 14.2937 4.35169 14.5504 5.54435C14.8071 6.73702 14.6472 7.98165 14.0973 9.07067C13.5474 10.1597 12.6408 11.0273 11.5286 11.5287C11.1731 12.3146 10.6323 13.0026 9.95254 13.5337C9.27276 14.0647 8.47433 14.4229 7.62572 14.5776C6.7771 14.7323 5.90363 14.6788 5.0802 14.4218C4.25678 14.1648 3.50799 13.7119 2.89804 13.102C2.28808 12.492 1.83518 11.7432 1.57817 10.9198C1.32116 10.0964 1.26771 9.2229 1.4224 8.37429C1.57709 7.52567 1.93531 6.72724 2.46634 6.04747C2.99737 5.36769 3.68535 4.82687 4.47129 4.47137C4.89406 3.53597 5.57769 2.74238 6.44019 2.18578C7.3027 1.62918 8.30745 1.33322 9.33396 1.33337ZM6.66729 5.33337C6.14201 5.33337 5.62186 5.43684 5.13656 5.63786C4.65126 5.83888 4.2103 6.13351 3.83887 6.50495C3.46743 6.87638 3.17279 7.31734 2.97178 7.80264C2.77076 8.28794 2.66729 8.80809 2.66729 9.33337C2.66729 9.85866 2.77076 10.3788 2.97178 10.8641C3.17279 11.3494 3.46743 11.7904 3.83887 12.1618C4.2103 12.5332 4.65126 12.8279 5.13656 13.0289C5.62186 13.2299 6.14201 13.3334 6.66729 13.3334C7.72816 13.3334 8.74558 12.9119 9.49572 12.1618C10.2459 11.4117 10.6673 10.3942 10.6673 9.33337C10.6673 8.27251 10.2459 7.25509 9.49572 6.50495C8.74558 5.7548 7.72816 5.33337 6.66729 5.33337ZM7.33396 6.00004V6.66671H8.66729V8.00004H6.00063C5.91733 7.99989 5.83699 8.03093 5.77544 8.08705C5.71388 8.14317 5.67557 8.2203 5.66804 8.30326C5.66052 8.38621 5.68432 8.46898 5.73477 8.53526C5.78522 8.60154 5.85866 8.64653 5.94063 8.66137L6.00063 8.66671H7.33396C7.77599 8.66671 8.19991 8.8423 8.51247 9.15486C8.82503 9.46742 9.00063 9.89135 9.00063 10.3334C9.00063 10.7754 8.82503 11.1993 8.51247 11.5119C8.19991 11.8244 7.77599 12 7.33396 12V12.6667H6.00063V12H4.66729V10.6667H7.33396C7.41726 10.6669 7.49759 10.6358 7.55915 10.5797C7.6207 10.5236 7.65902 10.4465 7.66654 10.3635C7.67407 10.2805 7.65026 10.1978 7.59981 10.1315C7.54936 10.0652 7.47593 10.0202 7.39396 10.0054L7.33396 10H6.00063C5.5586 10 5.13468 9.82445 4.82212 9.51189C4.50956 9.19933 4.33396 8.7754 4.33396 8.33337C4.33396 7.89135 4.50956 7.46742 4.82212 7.15486C5.13468 6.8423 5.5586 6.66671 6.00063 6.66671V6.00004H7.33396ZM9.33396 2.66671C8.76908 2.66605 8.21051 2.78534 7.69518 3.01668C7.17985 3.24803 6.71951 3.58616 6.34463 4.00871C7.09814 3.96297 7.85277 4.0777 8.55863 4.34534C9.26449 4.61297 9.9055 5.0274 10.4393 5.56123C10.973 6.09505 11.3874 6.7361 11.6549 7.442C11.9225 8.14789 12.0371 8.90254 11.9913 9.65604C12.5974 9.11712 13.0254 8.40667 13.2185 7.61892C13.4116 6.83116 13.3606 6.00332 13.0724 5.24519C12.7841 4.48706 12.2722 3.83447 11.6046 3.37396C10.9369 2.91346 10.145 2.6668 9.33396 2.66671Z" fill="currentColor"/>
</svg>
