<svg width="16" height="16" viewBox="0 0 16 16" fill="none" xmlns="http://www.w3.org/2000/svg">
<path d="M8 1.33331C11.6813 1.33331 14.6667 3.98531 14.6667 7.25931C14.6661 8.24145 14.2757 9.1832 13.5812 9.87762C12.8866 10.572 11.9448 10.9623 10.9627 10.9626H9.65199C9.03733 10.9626 8.54066 11.4593 8.54066 12.074C8.54066 12.3553 8.652 12.6146 8.82199 12.8073C9 13.0073 9.11133 13.2666 9.11133 13.5553C9.11133 14.1706 8.6 14.6666 8 14.6666C4.31866 14.6666 1.33333 11.6813 1.33333 7.99998C1.33333 4.31865 4.31866 1.33331 8 1.33331ZM7.20733 12.074C7.20707 11.7529 7.27012 11.4349 7.39288 11.1381C7.51564 10.8414 7.69571 10.5718 7.92277 10.3448C8.14983 10.1177 8.41943 9.93763 8.71615 9.81487C9.01287 9.6921 9.33088 9.62905 9.65199 9.62931H10.9627C11.5911 9.62896 12.1936 9.37926 12.6381 8.93504C13.0826 8.49082 13.3326 7.88838 13.3333 7.25998C13.3333 4.75931 10.9787 2.66665 8 2.66665C6.62371 2.66539 5.30022 3.19622 4.30625 4.14815C3.31227 5.10008 2.72476 6.3994 2.66657 7.77445C2.60837 9.1495 3.08399 10.4938 3.99397 11.5263C4.90396 12.5588 6.17786 13.1996 7.54933 13.3146C7.32611 12.9395 7.20797 12.5112 7.20733 12.0746V12.074ZM4.99999 7.99998C4.73478 7.99998 4.48042 7.89462 4.29289 7.70709C4.10535 7.51955 3.99999 7.2652 3.99999 6.99998C3.99999 6.73476 4.10535 6.48041 4.29289 6.29287C4.48042 6.10534 4.73478 5.99998 4.99999 5.99998C5.26521 5.99998 5.51957 6.10534 5.7071 6.29287C5.89464 6.48041 6 6.73476 6 6.99998C6 7.2652 5.89464 7.51955 5.7071 7.70709C5.51957 7.89462 5.26521 7.99998 4.99999 7.99998ZM11 7.99998C10.7348 7.99998 10.4804 7.89462 10.2929 7.70709C10.1054 7.51955 10 7.2652 10 6.99998C10 6.73476 10.1054 6.48041 10.2929 6.29287C10.4804 6.10534 10.7348 5.99998 11 5.99998C11.2652 5.99998 11.5196 6.10534 11.7071 6.29287C11.8946 6.48041 12 6.73476 12 6.99998C12 7.2652 11.8946 7.51955 11.7071 7.70709C11.5196 7.89462 11.2652 7.99998 11 7.99998ZM8 5.99998C7.73478 5.99998 7.48042 5.89462 7.29289 5.70709C7.10535 5.51955 7 5.2652 7 4.99998C7 4.73476 7.10535 4.48041 7.29289 4.29287C7.48042 4.10534 7.73478 3.99998 8 3.99998C8.26521 3.99998 8.51957 4.10534 8.7071 4.29287C8.89464 4.48041 9 4.73476 9 4.99998C9 5.2652 8.89464 5.51955 8.7071 5.70709C8.51957 5.89462 8.26521 5.99998 8 5.99998Z" fill="currentColor"/>
</svg>
