<svg width="25" height="25" viewBox="0 0 25 25" fill="none" xmlns="http://www.w3.org/2000/svg">
<path d="M9.04792 4.16667L11.7635 1.45104C11.9589 1.25576 12.2238 1.14606 12.5 1.14606C12.7762 1.14606 13.0411 1.25576 13.2365 1.45104L15.9521 4.16667H19.7917C20.0679 4.16667 20.3329 4.27642 20.5282 4.47177C20.7236 4.66712 20.8333 4.93207 20.8333 5.20834V9.04792L23.549 11.7635C23.7442 11.9589 23.8539 12.2238 23.8539 12.5C23.8539 12.7762 23.7442 13.0411 23.549 13.2365L20.8333 15.9521V19.7917C20.8333 20.0679 20.7236 20.3329 20.5282 20.5282C20.3329 20.7236 20.0679 20.8333 19.7917 20.8333H15.9521L13.2365 23.549C13.0411 23.7442 12.7762 23.8539 12.5 23.8539C12.2238 23.8539 11.9589 23.7442 11.7635 23.549L9.04792 20.8333H5.20833C4.93207 20.8333 4.66712 20.7236 4.47177 20.5282C4.27642 20.3329 4.16667 20.0679 4.16667 19.7917V15.9521L1.45104 13.2365C1.25576 13.0411 1.14606 12.7762 1.14606 12.5C1.14606 12.2238 1.25576 11.9589 1.45104 11.7635L4.16667 9.04792V5.20834C4.16667 4.93207 4.27642 4.66712 4.47177 4.47177C4.66712 4.27642 4.93207 4.16667 5.20833 4.16667H9.04792ZM6.25 6.25V9.91146L3.66146 12.5L6.25 15.0885V18.75H9.91146L12.5 21.3385L15.0885 18.75H18.75V15.0885L21.3385 12.5L18.75 9.91146V6.25H15.0885L12.5 3.66146L9.91146 6.25H6.25ZM12.5 16.6667C11.3949 16.6667 10.3351 16.2277 9.55372 15.4463C8.77232 14.6649 8.33334 13.6051 8.33334 12.5C8.33334 11.3949 8.77232 10.3351 9.55372 9.55373C10.3351 8.77232 11.3949 8.33334 12.5 8.33334C13.6051 8.33334 14.6649 8.77232 15.4463 9.55373C16.2277 10.3351 16.6667 11.3949 16.6667 12.5C16.6667 13.6051 16.2277 14.6649 15.4463 15.4463C14.6649 16.2277 13.6051 16.6667 12.5 16.6667ZM12.5 14.5833C13.0525 14.5833 13.5824 14.3638 13.9731 13.9731C14.3638 13.5824 14.5833 13.0525 14.5833 12.5C14.5833 11.9475 14.3638 11.4176 13.9731 11.0269C13.5824 10.6362 13.0525 10.4167 12.5 10.4167C11.9475 10.4167 11.4176 10.6362 11.0269 11.0269C10.6362 11.4176 10.4167 11.9475 10.4167 12.5C10.4167 13.0525 10.6362 13.5824 11.0269 13.9731C11.4176 14.3638 11.9475 14.5833 12.5 14.5833Z" fill="currentColor"/>
</svg>
